<svg xmlns="http://www.w3.org/2000/svg" width="33.883" height="21.177" viewBox="0 0 33.883 21.177">
  <path id="Icon_awesome-google-plus-g" data-name="Icon awesome-google-plus-g" d="M21.485,13.572a8.982,8.982,0,0,1,.173,1.762c0,6.053-4.059,10.343-10.17,10.343a10.589,10.589,0,1,1,0-21.177,10.114,10.114,0,0,1,7.093,2.774l-2.875,2.759A5.945,5.945,0,0,0,11.489,8.4a6.69,6.69,0,0,0,0,13.377A5.735,5.735,0,0,0,17.5,17.212H11.489v-3.64h10Zm10.225.355V10.853H28.621v3.074H25.548v3.088h3.074v3.074H31.71V17.015h3.074V13.927H31.71Z" transform="translate(-0.9 -4.5)" fill="#fff"/>
</svg>
